<svg width="269" height="265" viewBox="0 0 269 265" fill="none" xmlns="http://www.w3.org/2000/svg">
<path d="M181.816 241.956C185.102 241.555 190.417 241.976 198.999 244.258C201.312 245.916 202.96 247.712 204.105 249.61C193.763 255.878 182.507 260.788 170.586 264.101C171.553 260.423 172.365 257.041 173.088 254.357C174.518 249.047 175.684 246.129 176.992 244.379C177.853 243.228 178.928 242.309 181.816 241.956ZM94.6641 51.5684C100.289 50.2014 109.935 50.4652 128.457 55.6514L130.613 56.2549L132.812 55.832C135.432 55.3281 139.109 54.1645 143.018 52.3838C142.373 53.1447 141.639 53.9468 140.801 54.7852L134.681 60.9053L140.205 67.5674C147.32 76.1467 155.969 91.3501 155.514 105.701C155.31 112.113 153.304 118.441 148.28 124.351L143.531 129.937L147.731 135.945C158.574 151.457 167.689 170.264 168.887 190.964C170.001 210.229 164.32 232.147 144.833 255.694C140.42 253.965 135.808 252.584 131.044 251.57C131.116 250.162 131.231 248.261 131.417 245.688C132.876 225.483 131.228 205.136 129.401 193.08L110.615 195.926C111.831 203.952 112.975 216.248 112.975 229.538C79.4384 210.092 68.7754 188.546 67.3535 169.572C65.6789 147.226 76.4823 125.285 86.9756 109.191L88.5186 106.826V104.003C88.5186 93.7831 83.3235 84.428 75.125 79.0566C70.703 76.1596 65.5495 74.5097 60.0928 74.3799C61.2667 72.2476 63.0006 69.7728 65.5078 66.6006C65.7888 66.4549 66.1836 66.2693 66.6934 66.0742C67.8441 65.6338 69.1814 65.3028 70.5049 65.2227C72.8774 65.0791 75.0057 65.6534 76.918 68.2031C82.7919 76.0349 90.2863 79.4635 97.4736 79.9902C104.223 80.4848 110.191 78.404 113.948 76.123L104.088 59.8828C103.178 60.4352 101.096 61.2046 98.8623 61.041C97.0665 60.9094 94.644 60.1705 92.1182 56.8027C91.2887 55.6968 90.4198 54.6942 89.5205 53.7871C91.0662 52.7533 92.7035 52.0448 94.6641 51.5684ZM134.5 0C208.782 0 269 60.2177 269 134.5C269 176.478 249.768 213.962 219.636 238.628C218.309 236.616 216.744 234.7 214.926 232.901C232.151 196.956 234.788 167.478 233.522 143.122C232.865 130.47 231.123 118.973 230.042 109.632C228.916 99.9028 228.515 92.5735 229.715 86.4062L230.212 83.8535L229.338 81.4033C226.231 72.686 221.378 65.5094 214.528 61.2979C207.394 56.9112 199.281 56.4828 191.632 59.2197C183.24 62.2222 175.468 68.9129 168.762 78.3584C166.111 72.1154 162.858 66.5149 159.692 61.9004C164.176 55.771 166.362 49.639 166.515 43.748C166.715 35.9989 163.323 29.7243 159.1 26.2051L151.654 20L145.6 27.5684C143.522 30.1656 140.354 32.4587 136.887 34.248C134.637 35.4088 132.571 36.1975 131.083 36.6709C113.129 31.845 100.264 30.6555 90.1777 33.1064C80.5726 35.4406 74.6255 40.799 69.9385 46.2285C69.7437 46.2363 69.5493 46.2461 69.3564 46.2578C62.5599 46.6693 56.3805 49.4159 53.041 52.1191L52.2549 52.7559L51.6201 53.543C47.4754 58.6878 43.7136 63.8333 41.4238 69.4287C38.9738 75.4159 38.3472 81.5354 39.7002 88.3525L42.1416 100.656L53.3242 94.9717C58.2408 92.4721 62.1061 93.2414 64.7129 94.9492C66.9636 96.4239 68.6411 98.8331 69.2588 101.629C58.5767 118.61 46.3636 143.723 48.4072 170.992C49.0131 179.077 50.8498 187.13 54.1533 195.037C52.3718 207.58 57.2466 220.486 61.8809 231.017C63.2058 234.027 64.6012 237.025 65.9492 239.912C67.3118 242.83 68.6211 245.625 69.8467 248.376C70.6655 250.214 71.422 251.981 72.1064 253.681C29.2419 231.194 0 186.263 0 134.5C1.90058e-06 60.2177 60.2177 1.90735e-06 134.5 0ZM83.333 232.234C90.7727 238.261 99.5536 244.045 109.824 249.513C103.587 249.603 97.5225 250.402 91.7041 251.833C90.391 248.03 88.8144 244.265 87.2021 240.646C85.9479 237.83 84.6202 234.991 83.333 232.234ZM198.033 77.1094C200.865 76.0962 202.879 76.4398 204.576 77.4834C206.31 78.5496 208.581 80.9115 210.594 85.6133C209.413 94.1015 210.15 103.018 211.168 111.816C212.345 121.988 213.932 132.257 214.548 144.108C215.672 165.745 213.455 191.907 197.905 224.458C192.867 223.389 188.298 222.818 184.152 222.824C187.392 211.546 188.471 200.515 187.855 189.867C186.538 167.081 177.524 146.951 167.107 130.736C171.706 123.436 173.923 115.688 174.419 108.021C182.132 88.5733 191.633 79.3995 198.033 77.1094Z" fill="#D9D9D9"/>
</svg>
